<svg width="22" height="22" viewBox="0 0 22 22" fill="none" xmlns="http://www.w3.org/2000/svg">
<path fill-rule="evenodd" clip-rule="evenodd" d="M4.77536 0.343349C8.91245 -0.11445 13.0875 -0.11445 17.2246 0.343349C19.5153 0.599657 21.3633 2.40048 21.632 4.69524C22.1227 8.88379 22.1227 13.1151 21.632 17.3037C21.496 18.4187 20.9867 19.4552 20.1868 20.2451C19.3868 21.0351 18.343 21.5321 17.2246 21.6556C13.0876 22.1148 8.91237 22.1148 4.77536 21.6556C3.657 21.5321 2.61322 21.0351 1.81323 20.2451C1.01325 19.4552 0.503974 18.4187 0.367965 17.3037C-0.122655 13.1156 -0.122655 8.88468 0.367965 4.69657C0.503915 3.58173 1.013 2.54538 1.81271 1.7555C2.61243 0.965621 3.6559 0.468491 4.77402 0.344684L4.77536 0.343349ZM11 4.3348C11.266 4.3348 11.5211 4.44029 11.7092 4.62805C11.8972 4.81581 12.0029 5.07047 12.0029 5.33601V9.99893H16.6737C16.9397 9.99893 17.1948 10.1044 17.3829 10.2922C17.5709 10.4799 17.6766 10.7346 17.6766 11.0001C17.6766 11.2657 17.5709 11.5203 17.3829 11.7081C17.1948 11.8959 16.9397 12.0013 16.6737 12.0013H12.0029V16.6643C12.0029 16.9298 11.8972 17.1845 11.7092 17.3722C11.5211 17.56 11.266 17.6655 11 17.6655C10.734 17.6655 10.4789 17.56 10.2908 17.3722C10.1028 17.1845 9.9971 16.9298 9.9971 16.6643V12.0013H5.32628C5.0603 12.0013 4.80521 11.8959 4.61713 11.7081C4.42905 11.5203 4.32339 11.2657 4.32339 11.0001C4.32339 10.7346 4.42905 10.4799 4.61713 10.2922C4.80521 10.1044 5.0603 9.99893 5.32628 9.99893H9.9971V5.33601C9.9971 5.07047 10.1028 4.81581 10.2908 4.62805C10.4789 4.44029 10.734 4.3348 11 4.3348Z" fill="#007940"/>
</svg>
