<svg width="19" height="19" viewBox="0 0 19 19" fill="none" xmlns="http://www.w3.org/2000/svg">
<path id="Vector" d="M0 9.065C0 10.8579 0.531653 12.6105 1.52773 14.1012C2.5238 15.592 3.93956 16.7539 5.59597 17.44C7.25239 18.1261 9.07505 18.3056 10.8335 17.9558C12.5919 17.606 14.2072 16.7427 15.4749 15.4749C16.7427 14.2072 17.606 12.5919 17.9558 10.8335C18.3056 9.07505 18.1261 7.25239 17.44 5.59597C16.7539 3.93956 15.592 2.5238 14.1012 1.52773C12.6105 0.531653 10.8579 0 9.065 0C6.66081 0 4.35509 0.955059 2.65508 2.65508C0.955059 4.35509 0 6.66081 0 9.065ZM3.885 8.4175H11.7521L8.13907 4.78697L9.065 3.885L14.245 9.065L9.065 14.245L8.13907 13.321L11.7521 9.7125H3.885V8.4175Z" fill="#007940"/>
</svg>
