<svg width="20" height="20" viewBox="0 0 20 20" fill="none" xmlns="http://www.w3.org/2000/svg">
<g filter="url(#filter0_d_76_640)">
<path fill-rule="evenodd" clip-rule="evenodd" d="M11.345 3.80974C12.9696 5.11057 14.4457 6.58669 15.7465 8.21123C16.4658 9.1117 16.4824 10.4018 15.7661 11.3081C14.4587 12.9624 12.9627 14.4585 11.3084 15.7659C10.8661 16.112 10.3195 16.2984 9.75743 16.2949C9.19532 16.2913 8.65057 16.098 8.2115 15.7462C6.58648 14.4459 5.11031 12.9698 3.81001 11.3448C3.45828 10.9057 3.26497 10.3609 3.2614 9.79882C3.25784 9.23671 3.44424 8.6902 3.79039 8.24788C5.09764 6.5937 6.5935 5.09784 8.24768 3.79059C8.6899 3.44449 9.2363 3.25808 9.7983 3.26156C10.3603 3.26503 10.905 3.45819 11.3441 3.80974L11.345 3.80974ZM12.1346 7.42168C12.2286 7.51572 12.2815 7.6432 12.2816 7.77608C12.2817 7.90896 12.2291 8.03635 12.1352 8.13023L10.4866 9.77883L12.138 11.4302C12.232 11.5243 12.2849 11.6517 12.285 11.7846C12.2851 11.9175 12.2324 12.0449 12.1386 12.1388C12.0447 12.2326 11.9173 12.2853 11.7844 12.2852C11.6515 12.2851 11.5241 12.2322 11.43 12.1382L9.77863 10.4868L8.13003 12.1354C8.03615 12.2293 7.90876 12.2819 7.77588 12.2818C7.643 12.2817 7.51552 12.2288 7.42148 12.1348C7.32744 12.0407 7.27454 11.9133 7.27443 11.7804C7.27432 11.6475 7.327 11.5201 7.42088 11.4262L9.06947 9.77763L7.41809 8.12624C7.32405 8.0322 7.27115 7.90472 7.27104 7.77184C7.27093 7.63896 7.32361 7.51157 7.41749 7.41769C7.51137 7.32381 7.63876 7.27113 7.77164 7.27124C7.90452 7.27135 8.032 7.32425 8.12604 7.41829L9.77743 9.06967L11.426 7.42108C11.5199 7.3272 11.6473 7.27452 11.7802 7.27463C11.9131 7.27474 12.0405 7.32764 12.1346 7.42168Z" fill="#CFCFCF"/>
</g>
<defs>
<filter id="filter0_d_76_640" x="0.261475" y="0.261505" width="19.0332" height="19.0334" filterUnits="userSpaceOnUse" color-interpolation-filters="sRGB">
<feFlood flood-opacity="0" result="BackgroundImageFix"/>
<feColorMatrix in="SourceAlpha" type="matrix" values="0 0 0 0 0 0 0 0 0 0 0 0 0 0 0 0 0 0 127 0" result="hardAlpha"/>
<feOffset/>
<feGaussianBlur stdDeviation="1.5"/>
<feComposite in2="hardAlpha" operator="out"/>
<feColorMatrix type="matrix" values="0 0 0 0 0 0 0 0 0 0 0 0 0 0 0 0 0 0 0.5 0"/>
<feBlend mode="normal" in2="BackgroundImageFix" result="effect1_dropShadow_76_640"/>
<feBlend mode="normal" in="SourceGraphic" in2="effect1_dropShadow_76_640" result="shape"/>
</filter>
</defs>
</svg>
