<svg width="20" height="20" viewBox="0 0 20 20" fill="none" xmlns="http://www.w3.org/2000/svg">
<g id="Group">
<path id="Vector" d="M16.4832 14.767C15.1164 15.0952 13.6895 15.0793 12.3303 14.7207C10.9712 14.3621 9.72212 13.6721 8.69508 12.7123C7.66804 11.7526 6.89506 10.5531 6.44535 9.22125C5.99564 7.88945 5.88325 6.4669 6.11824 5.08099C6.0825 5.11551 6.04477 5.1479 6.00524 5.17799C5.72523 5.39099 5.37524 5.46999 4.67524 5.62799L4.04024 5.77199C1.58024 6.32899 0.350235 6.60699 0.057235 7.54799C-0.234765 8.48799 0.603235 9.46899 2.28024 11.43L2.71424 11.937C3.19024 12.494 3.42923 12.773 3.53623 13.117C3.64323 13.462 3.60723 13.834 3.53523 14.577L3.46923 15.254C3.21623 17.871 3.08924 19.179 3.85524 19.76C4.62123 20.342 5.77323 19.812 8.07523 18.751L8.67223 18.477C9.32623 18.175 9.65323 18.025 10.0002 18.025C10.3472 18.025 10.6742 18.175 11.3292 18.477L11.9242 18.751C14.2272 19.811 15.3792 20.341 16.1442 19.761C16.9112 19.179 16.7842 17.871 16.5312 15.254L16.4832 14.767Z" fill="#D5D907"/>
<path id="Vector_2" opacity="0.5" d="M7.15325 3.408L6.82525 3.996C6.46525 4.642 6.28525 4.965 6.00525 5.178C6.04525 5.148 6.08225 5.116 6.11825 5.081C5.8832 6.46701 5.99559 7.88967 6.44535 9.22158C6.8951 10.5535 7.66818 11.7531 8.69535 12.7128C9.72252 13.6726 10.9717 14.3627 12.331 14.7212C13.6903 15.0797 15.1173 15.0954 16.4842 14.767L16.4642 14.577C16.3932 13.834 16.3572 13.462 16.4642 13.117C16.5712 12.773 16.8092 12.494 17.2862 11.937L17.7202 11.43C19.3972 9.47 20.2352 8.489 19.9422 7.548C19.6502 6.607 18.4202 6.328 15.9602 5.772L15.3242 5.628C14.6252 5.47 14.2752 5.391 13.9942 5.178C13.7142 4.965 13.5342 4.642 13.1742 3.996L12.8472 3.408C11.5802 1.136 10.9472 0 10.0002 0C9.05325 0 8.42025 1.136 7.15325 3.408Z" fill="#D5D907"/>
</g>
</svg>
